<svg width="32" height="32" viewBox="0 0 32 32" fill="none" xmlns="http://www.w3.org/2000/svg">
<g id="Bell">
<path id="Bell_2" d="M20.1827 5.26C19.324 4.76133 18.7933 3.83333 18.796 2.83333V2.82933C18.796 1.26667 17.544 0 16 0C14.456 0 13.204 1.26667 13.204 2.82933V2.83333C13.2067 3.83467 12.676 4.76133 11.8173 5.26C5.59332 8.876 9.16932 20.88 2.66666 23.0013V25.3333H29.3333V23.0013C22.8307 20.88 26.4067 8.876 20.1827 5.26ZM16 1.33333C16.736 1.33333 17.3333 1.932 17.3333 2.66667C17.3333 3.40267 16.736 4 16 4C15.264 4 14.6667 3.40267 14.6667 2.66667C14.6667 1.932 15.264 1.33333 16 1.33333Z" fill="black"/>
<g id="Sound">
<path d="M22.9307 3.95204C25.4427 6.39604 26.3587 9.30004 26.6867 11.3054L29.3187 10.8747C28.7573 7.43204 27.192 4.37604 24.792 2.04004L22.9307 3.95204Z" fill="black"/>
<path d="M7.19332 2.04004C4.79332 4.37737 3.22799 7.43204 2.66666 10.876L5.29866 11.3054C5.62532 9.30004 6.54266 6.39604 9.05466 3.95204L7.19332 2.04004Z" fill="black"/>
</g>
<path id="Tongue" d="M16.0387 32C18.144 32 20 30.1307 20 28H12C12 30.1307 13.9333 32 16.0387 32Z" fill="black"/>
</g>
</svg>
