<svg width="24" height="24" viewBox="0 0 24 24" fill="none" xmlns="http://www.w3.org/2000/svg">
<g id="Birdhouse" clip-path="url(#clip0_120_72)">
<path id="House" d="M20 13.897L18 24H6L4 13.897L12 6.453L20 13.897ZM13 20C13 19.448 12.552 19 12 19C11.448 19 11 19.448 11 20C11 20.552 11.448 21 12 21C12.552 21 13 20.552 13 20ZM14 15C14 13.895 13.104 13 12 13C10.896 13 10 13.895 10 15C10 16.105 10.896 17 12 17C13.104 17 14 16.105 14 15Z" fill="black"/>
<path id="Roof" d="M22.639 13.613L24 12.148L12 1L0 12.133L1.361 13.598L12 3.73L22.639 13.613Z" fill="black"/>
<path id="Bird" d="M14 13.7595C13.8528 13.8249 13.6947 13.8689 13.5287 13.8887C13.6982 13.7872 13.8283 13.6264 13.8895 13.4347C13.731 13.5287 13.5553 13.597 13.3683 13.6339C13.2188 13.4744 13.0053 13.3747 12.7693 13.3747C12.2395 13.3747 11.8502 13.869 11.9698 14.3822C11.288 14.348 10.6833 14.0214 10.2785 13.5249C10.0635 13.8937 10.167 14.3762 10.5323 14.6205C10.398 14.6162 10.2713 14.5794 10.1608 14.5179C10.1518 14.898 10.4243 15.2537 10.819 15.3329C10.7035 15.3642 10.577 15.3715 10.4483 15.3469C10.5527 15.6729 10.8557 15.91 11.215 15.9167C10.87 16.1872 10.4353 16.308 10 16.2567C10.3632 16.4895 10.7947 16.6254 11.258 16.6254C12.7817 16.6254 13.6425 15.3385 13.5905 14.1844C13.7508 14.0685 13.89 13.924 14 13.7595Z" fill="#3490FB"/>
</g>
<defs>
<clipPath id="clip0_120_72">
<rect width="24" height="24" fill="white"/>
</clipPath>
</defs>
</svg>
